<svg width="990" height="95" viewBox="0 0 990 95" fill="none" xmlns="http://www.w3.org/2000/svg">
<path d="M7.125 19.7812L2.34375 18.0938C0.78125 14.4688 0.09375 10.375 0.28125 5.8125L3 1.6875L7.125 0.75L8.4375 1.6875V3.09375C7.3125 4.21875 6.0625 4.78125 4.6875 4.78125L4.40625 6.84375H5.4375L7.40625 6.46875L11.5312 8.53125C12.9062 10.0937 13.3438 12.125 12.8438 14.625L10.5 17.7188L8.15625 18.75L7.125 19.7812ZM24.4688 18.75L20.7188 17.3438C19.5938 14.2187 19.0312 10.7188 19.0312 6.84375L22.125 2.4375L25.5 1.6875L25.7812 4.40625L23.0625 6.1875L22.7812 7.5H24.0938L25.125 7.21875L29.25 8.90625L30.9375 13.9688L29.25 17.0625C27.875 18.1875 26.2812 18.75 24.4688 18.75ZM107.25 79.2188C103.625 78.3438 100.344 76.875 97.4062 74.8125C94.4062 71.625 92.9062 67.75 92.9062 63.1875L94.9688 62.5312C95.6562 66.8438 97.4688 70.5938 100.406 73.7812C103.406 75.5938 106.719 76.5 110.344 76.5C114.469 76.3125 118.125 75.3125 121.312 73.5C123.562 71.4375 125.25 69.0312 126.375 66.2812L128.156 54.6562C127.469 49.6562 125.188 45.3438 121.312 41.7188C117.625 39.2188 113.625 37.75 109.312 37.3125C105 36.8125 101.25 34.9688 98.0625 31.7812C96.6875 29.0312 96 25.9688 96 22.5938L96.6562 19.5L96.375 18.0938C97.75 15.1562 99.5625 12.4375 101.812 9.9375C105 8.125 108.531 6.96875 112.406 6.46875C116.281 6.71875 119.594 7.96875 122.344 10.2188C124.344 12.0938 125.688 14.2813 126.375 16.7812L124.688 17.8125L121.969 13.3125C118.094 10.125 113.438 8.875 108 9.5625L102.469 13.3125C100.219 16.3125 99.0938 19.8437 99.0938 23.9062C98.6562 26.9062 99.4375 29.3125 101.438 31.125C105.562 33.125 109.781 34.5938 114.094 35.5312C118.406 36.4688 122.281 38.625 125.719 42C127.781 44.5 129.188 47.25 129.938 50.25C130.75 53.1875 131.156 56.25 131.156 59.4375C130.469 65.125 128.219 70.25 124.406 74.8125C122.094 76.875 119.438 78.125 116.438 78.5625C113.5 79 110.438 79.2188 107.25 79.2188ZM149.719 93.2812C148.344 91.6562 147.781 89.7188 148.031 87.4688L148.406 86.4375L148.031 84.375L148.406 80.625L148.031 79.5938L148.406 75.4688L147.375 68.3438L147.656 67.3125C147.219 63.1875 146.438 59.1875 145.312 55.3125H144.281L142.594 60.0938H140.906L140.25 58.4062L142.594 52.3125C143.719 51.125 145.094 50.6562 146.719 50.9062L150.094 57.375L151.781 57.75L154.5 55.0312C157.688 52.0312 161.562 50.7812 166.125 51.2812C169.062 51.7188 171.656 53.0625 173.906 55.3125C175.719 58.0625 176.906 61 177.469 64.125C178.031 67.1875 178.312 70.4062 178.312 73.7812L177.281 87.8438C178.469 88.5312 179.844 88.75 181.406 88.5L185.156 86.8125L185.812 88.875C183.75 91.125 181.156 92.375 178.031 92.625L174.281 90.5625C173.156 87.5625 172.812 84.375 173.25 81L174.562 72.75C174.812 66.625 173.125 61.2812 169.5 56.7188C167.438 55.5938 165.156 55.0312 162.656 55.0312C158.781 55.7188 155.5 57.6562 152.812 60.8438C151.688 62.6562 151.125 64.6875 151.125 66.9375C151.812 71.75 152.25 76.5312 152.438 81.2812L152.156 86.0625L152.438 87.8438L151.125 92.9062L149.719 93.2812ZM233.531 9.9375L233.156 8.90625L234.188 8.53125L234.469 9.5625L233.531 9.9375ZM207.281 93.375C204.344 92.6875 201.844 91.0625 199.781 88.5C197.969 85.75 196.656 82.7188 195.844 79.4062C195.094 76.0938 194.594 72.75 194.344 69.375L194.719 66.5625L194.344 65.5312C195.219 60.7812 197.156 56.4375 200.156 52.5L201.469 51.4688L202.5 50.1562L205.219 48.75C207.281 47.375 209.438 46.6875 211.688 46.6875L213.375 47.0625L213.75 46.0312H216.094L219.844 47.7188L224.625 52.875L226.031 56.625C227.594 58.9375 228.594 61.6562 229.031 64.7812C229.531 67.8438 229.781 70.9688 229.781 74.1562C229.094 76.9062 228.156 79.5938 226.969 82.2188C225.844 84.8438 224.156 87.2812 221.906 89.5312C217.594 92.5312 212.719 93.8125 207.281 93.375ZM216.844 88.2188C219.344 87.5312 221.375 86.0312 222.938 83.7188C225.188 78.9062 226.312 73.6562 226.312 67.9688C225.875 62.9062 224.188 58.4375 221.25 54.5625L215.812 49.4062L213.375 49.125C209.75 49.125 206.688 50.375 204.188 52.875C201.688 55.375 199.969 58.1875 199.031 61.3125C198.156 64.375 197.844 67.625 198.094 71.0625C198.344 74.25 198.969 77.2188 199.969 79.9688C200.969 82.7188 202.5 85.2188 204.562 87.4688C207.062 89.3438 209.906 90.0312 213.094 89.5312L216.844 88.2188ZM246.469 93.2812L243 91.2188C240.062 87.5938 237.969 83.625 236.719 79.3125C235.469 74.9375 234.625 70.375 234.188 65.625C234.438 61.875 234.438 58.0938 234.188 54.2812C234.625 52.0312 235.312 50 236.25 48.1875H237.938C237.812 52 237.812 55.75 237.938 59.4375L237.562 60.8438C238 65.4062 238.625 69.9062 239.438 74.3438C240.25 78.7812 242.125 82.8125 245.062 86.4375L246.094 86.8125C247.469 84.3125 248.531 81.5938 249.281 78.6562C250.094 75.6562 251.062 72.7812 252.188 70.0312L253.594 69.6562L255.281 71.4375C256.406 74.125 257.344 76.9688 258.094 79.9688C258.906 82.9062 260.25 85.625 262.125 88.125L263.062 88.5L266.156 85.0312C268.656 79.5938 270.969 74.1562 273.094 68.7188C275.281 63.2188 276.156 57.1562 275.719 50.5312L275.344 48.1875L277.031 46.5H278.438C279.125 49.6875 279.344 53.0938 279.094 56.7188L278.719 57.75L279.094 59.0625C278.219 64.8125 276.562 70.25 274.125 75.375C271.75 80.5 269.219 85.5625 266.531 90.5625C264.906 92.125 263.094 92.9062 261.094 92.9062L256.969 88.875C255.594 85.875 254.562 82.7812 253.875 79.5938L252.562 79.2188C251.188 83.7812 249.594 88.3438 247.781 92.9062L246.469 93.2812ZM289.031 87.8438L287.25 86.1562L286.969 83.0625L289.031 79.0312L291.75 78.2812L295.5 80.7188L295.875 83.0625L293.438 86.8125C292.312 87.75 290.844 88.0938 289.031 87.8438ZM417.656 77.7188L415.594 76.6875C416.094 59.3125 415.875 42.0312 414.938 24.8438C415.25 21.9062 415.594 18.9688 415.969 16.0312L415.594 14.625H414.562C412.062 18.5 409.781 22.4062 407.719 26.3438C405.719 30.2812 403.469 34.1875 400.969 38.0625L398.625 39.0938L397.219 38.3438C396.344 34.0938 395.156 29.875 393.656 25.6875C392.156 21.5 390.625 17.375 389.062 13.3125L388.031 12.9375C386.656 17.6875 385.875 22.7812 385.688 28.2188L385.969 31.5938L384.938 45.1875L385.312 46.2188L384.656 48.1875L385.688 55.0312L384.938 64.875C385.625 66 385.875 67.3438 385.688 68.9062L385.312 72.6562L385.688 76.0312L384 77.3438L382.219 76.6875C382.906 66.875 382.906 57.1562 382.219 47.5312L382.594 45.8438L382.219 44.4375C382.219 41.0625 382.688 37.8125 383.625 34.6875L382.969 23.4375C383.656 18 385 12.9062 387 8.15625L389.438 7.875C392.125 11.6875 394.094 15.875 395.344 20.4375C396.594 24.9375 398.125 29.3438 399.938 33.6562H401.344C402.469 29.7812 404.094 26.1562 406.219 22.7812C408.406 19.4062 410.406 15.9062 412.219 12.2812C413.594 10.6562 415.281 9.625 417.281 9.1875C418.656 11.6875 419.25 14.5312 419.062 17.7188C419 29.2188 418.75 40.75 418.312 52.3125C418.812 55.9375 419.156 59.6562 419.344 63.4688L419.062 64.875L419.344 65.8125C419.406 69.6875 419.188 73.5312 418.688 77.3438L417.656 77.7188ZM447.281 93.375C444.344 92.6875 441.844 91.0625 439.781 88.5C437.969 85.75 436.656 82.7188 435.844 79.4062C435.094 76.0938 434.594 72.75 434.344 69.375L434.719 66.5625L434.344 65.5312C435.219 60.7812 437.156 56.4375 440.156 52.5L441.469 51.4688L442.5 50.1562L445.219 48.75C447.281 47.375 449.438 46.6875 451.688 46.6875L453.375 47.0625L453.75 46.0312H456.094L459.844 47.7188L464.625 52.875L466.031 56.625C467.594 58.9375 468.594 61.6562 469.031 64.7812C469.531 67.8438 469.781 70.9688 469.781 74.1562C469.094 76.9062 468.156 79.5938 466.969 82.2188C465.844 84.8438 464.156 87.2812 461.906 89.5312C457.594 92.5312 452.719 93.8125 447.281 93.375ZM456.844 88.2188C459.344 87.5312 461.375 86.0312 462.938 83.7188C465.188 78.9062 466.312 73.6562 466.312 67.9688C465.875 62.9062 464.188 58.4375 461.25 54.5625L455.812 49.4062L453.375 49.125C449.75 49.125 446.688 50.375 444.188 52.875C441.688 55.375 439.969 58.1875 439.031 61.3125C438.156 64.375 437.844 67.625 438.094 71.0625C438.344 74.25 438.969 77.2188 439.969 79.9688C440.969 82.7188 442.5 85.2188 444.562 87.4688C447.062 89.3438 449.906 90.0312 453.094 89.5312L456.844 88.2188ZM495.281 93.375C492.344 92.6875 489.844 91.0625 487.781 88.5C485.969 85.75 484.656 82.7188 483.844 79.4062C483.094 76.0938 482.594 72.75 482.344 69.375L482.719 66.5625L482.344 65.5312C483.219 60.7812 485.156 56.4375 488.156 52.5L489.469 51.4688L490.5 50.1562L493.219 48.75C495.281 47.375 497.438 46.6875 499.688 46.6875L501.375 47.0625L501.75 46.0312H504.094L507.844 47.7188L512.625 52.875L514.031 56.625C515.594 58.9375 516.594 61.6562 517.031 64.7812C517.531 67.8438 517.781 70.9688 517.781 74.1562C517.094 76.9062 516.156 79.5938 514.969 82.2188C513.844 84.8438 512.156 87.2812 509.906 89.5312C505.594 92.5312 500.719 93.8125 495.281 93.375ZM504.844 88.2188C507.344 87.5312 509.375 86.0312 510.938 83.7188C513.188 78.9062 514.312 73.6562 514.312 67.9688C513.875 62.9062 512.188 58.4375 509.25 54.5625L503.812 49.4062L501.375 49.125C497.75 49.125 494.688 50.375 492.188 52.875C489.688 55.375 487.969 58.1875 487.031 61.3125C486.156 64.375 485.844 67.625 486.094 71.0625C486.344 74.25 486.969 77.2188 487.969 79.9688C488.969 82.7188 490.5 85.2188 492.562 87.4688C495.062 89.3438 497.906 90.0312 501.094 89.5312L504.844 88.2188ZM533.719 93.2812C532.344 91.6562 531.781 89.7188 532.031 87.4688L532.406 86.4375L532.031 84.375L532.406 80.625L532.031 79.5938L532.406 75.4688L531.375 68.3438L531.656 67.3125C531.219 63.1875 530.438 59.1875 529.312 55.3125H528.281L526.594 60.0938H524.906L524.25 58.4062L526.594 52.3125C527.719 51.125 529.094 50.6562 530.719 50.9062L534.094 57.375L535.781 57.75L538.5 55.0312C541.688 52.0312 545.562 50.7812 550.125 51.2812C553.062 51.7188 555.656 53.0625 557.906 55.3125C559.719 58.0625 560.906 61 561.469 64.125C562.031 67.1875 562.312 70.4062 562.312 73.7812L561.281 87.8438C562.469 88.5312 563.844 88.75 565.406 88.5L569.156 86.8125L569.812 88.875C567.75 91.125 565.156 92.375 562.031 92.625L558.281 90.5625C557.156 87.5625 556.812 84.375 557.25 81L558.562 72.75C558.812 66.625 557.125 61.2812 553.5 56.7188C551.438 55.5938 549.156 55.0312 546.656 55.0312C542.781 55.7188 539.5 57.6562 536.812 60.8438C535.688 62.6562 535.125 64.6875 535.125 66.9375C535.812 71.75 536.25 76.5312 536.438 81.2812L536.156 86.0625L536.438 87.8438L535.125 92.9062L533.719 93.2812ZM617.531 9.9375L617.156 8.90625L618.188 8.53125L618.469 9.5625L617.531 9.9375ZM577.031 87.8438L575.25 86.1562L574.969 83.0625L577.031 79.0312L579.75 78.2812L583.5 80.7188L583.875 83.0625L581.438 86.8125C580.312 87.75 578.844 88.0938 577.031 87.8438ZM675.375 79.9688C674.062 74.4688 673.062 68.875 672.375 63.1875C672.812 48.5 672.812 33.8125 672.375 19.125L672.656 17.0625L672 11.625C676.125 10 680.438 8.96875 684.938 8.53125C689.5 8.09375 694.188 7.75 699 7.5C702.625 7.75 706.031 8.5625 709.219 9.9375L709.594 11.25L704.156 11.625C701.156 10.6875 697.844 10.3438 694.219 10.5938C691.031 10.8437 687.906 11.1562 684.844 11.5312C681.781 11.8438 678.75 12.5625 675.75 13.6875C675.5 17.25 675.375 20.7812 675.375 24.2812L675.75 27L675.375 29.0625C675.875 31.8125 676.219 34.5312 676.406 37.2188L676.125 41.7188C677.688 42.4062 679.5 42.625 681.562 42.375L690.094 41.3438C694.406 41.0938 698.5 41.6562 702.375 43.0312L702.75 45.4688L701.344 45.75C696.156 44.875 690.594 44.5312 684.656 44.7188C681.719 45.4062 678.75 46 675.75 46.5L675.094 56.7188C675.281 60.5938 675.656 64.375 676.219 68.0625C676.844 71.6875 677.5 75.3125 678.188 78.9375L675.375 79.9688ZM742.125 94.6875C739.812 94.5 737.875 93.375 736.312 91.3125C735.188 88.3125 734.625 85.0938 734.625 81.6562C735.312 76.1562 735.688 70.5 735.75 64.6875C735.875 58.875 736.281 53.125 736.969 47.4375C737.281 38.875 737.625 30.2812 738 21.6562C737.562 18.7187 737.281 15.7187 737.156 12.6562C737.031 9.53125 736.406 6.59375 735.281 3.84375C733.031 4.09375 731.656 3.40625 731.156 1.78125L735.656 0.09375L738.656 1.78125C739.781 4.09375 740.594 6.625 741.094 9.375L740.719 11.0625C741.156 14 741.438 17.125 741.562 20.4375C741.688 23.75 741.75 27.0313 741.75 30.2812L741.375 32.625L741.75 34.6875C741.062 43.1875 740.469 51.6562 739.969 60.0938C739.531 68.5312 739.094 76.9688 738.656 85.4062L740.719 89.5312L746.156 91.5938L746.531 93C745.156 94.125 743.688 94.6875 742.125 94.6875ZM783.281 93.375C780.344 92.6875 777.844 91.0625 775.781 88.5C773.969 85.75 772.656 82.7188 771.844 79.4062C771.094 76.0938 770.594 72.75 770.344 69.375L770.719 66.5625L770.344 65.5312C771.219 60.7812 773.156 56.4375 776.156 52.5L777.469 51.4688L778.5 50.1562L781.219 48.75C783.281 47.375 785.438 46.6875 787.688 46.6875L789.375 47.0625L789.75 46.0312H792.094L795.844 47.7188L800.625 52.875L802.031 56.625C803.594 58.9375 804.594 61.6562 805.031 64.7812C805.531 67.8438 805.781 70.9688 805.781 74.1562C805.094 76.9062 804.156 79.5938 802.969 82.2188C801.844 84.8438 800.156 87.2812 797.906 89.5312C793.594 92.5312 788.719 93.8125 783.281 93.375ZM792.844 88.2188C795.344 87.5312 797.375 86.0312 798.938 83.7188C801.188 78.9062 802.312 73.6562 802.312 67.9688C801.875 62.9062 800.188 58.4375 797.25 54.5625L791.812 49.4062L789.375 49.125C785.75 49.125 782.688 50.375 780.188 52.875C777.688 55.375 775.969 58.1875 775.031 61.3125C774.156 64.375 773.844 67.625 774.094 71.0625C774.344 74.25 774.969 77.2188 775.969 79.9688C776.969 82.7188 778.5 85.2188 780.562 87.4688C783.062 89.3438 785.906 90.0312 789.094 89.5312L792.844 88.2188ZM822.469 93.2812L819 91.2188C816.062 87.5938 813.969 83.625 812.719 79.3125C811.469 74.9375 810.625 70.375 810.188 65.625C810.438 61.875 810.438 58.0938 810.188 54.2812C810.625 52.0312 811.312 50 812.25 48.1875H813.938C813.812 52 813.812 55.75 813.938 59.4375L813.562 60.8438C814 65.4062 814.625 69.9062 815.438 74.3438C816.25 78.7812 818.125 82.8125 821.062 86.4375L822.094 86.8125C823.469 84.3125 824.531 81.5938 825.281 78.6562C826.094 75.6562 827.062 72.7812 828.188 70.0312L829.594 69.6562L831.281 71.4375C832.406 74.125 833.344 76.9688 834.094 79.9688C834.906 82.9062 836.25 85.625 838.125 88.125L839.062 88.5L842.156 85.0312C844.656 79.5938 846.969 74.1562 849.094 68.7188C851.281 63.2188 852.156 57.1562 851.719 50.5312L851.344 48.1875L853.031 46.5H854.438C855.125 49.6875 855.344 53.0938 855.094 56.7188L854.719 57.75L855.094 59.0625C854.219 64.8125 852.562 70.25 850.125 75.375C847.75 80.5 845.219 85.5625 842.531 90.5625C840.906 92.125 839.094 92.9062 837.094 92.9062L832.969 88.875C831.594 85.875 830.562 82.7812 829.875 79.5938L828.562 79.2188C827.188 83.7812 825.594 88.3438 823.781 92.9062L822.469 93.2812ZM877.875 85.7812C874.25 85.3438 870.969 84 868.031 81.75C865.781 79.4375 864.031 77 862.781 74.4375C861.531 71.8125 861 68.9062 861.188 65.7188C862.125 62.7812 862.969 59.7812 863.719 56.7188C864.531 53.6562 866.094 50.875 868.406 48.375C871.594 46.125 875.344 45 879.656 45C884.844 45 889.25 46.9062 892.875 50.7188C894.25 53.0312 894.938 55.5312 894.938 58.2188C892.875 61.4062 890.25 64.0312 887.062 66.0938C884.562 67.4688 881.844 68.25 878.906 68.4375C873.906 68.25 869.25 67.3438 864.938 65.7188L864.656 70.125C865.531 73.75 867.562 76.9375 870.75 79.6875C873.688 81.25 876.969 82.1562 880.594 82.4062C886.719 82.6562 892.062 80.9688 896.625 77.3438L897.656 77.625V80.0625C894.906 82.3125 891.875 83.875 888.562 84.75C885.312 85.6875 881.75 86.0312 877.875 85.7812ZM884.062 64.0312C885.625 63.5938 887.094 62.6875 888.469 61.3125L891.188 58.2188L891.844 55.875C891.844 53.8125 890.938 52.2188 889.125 51.0938C885.75 48.8438 881.781 47.8125 877.219 48C874.531 48.25 872.156 49.4062 870.094 51.4688C867.594 55.0938 866.125 59.1562 865.688 63.6562L866.719 64.0312L868.688 63.6562C872.562 64.7812 876.656 65.25 880.969 65.0625L884.062 64.0312ZM915.375 91.2188L914.438 89.5312C915.75 84.2812 916.656 78.8125 917.156 73.125L916.781 70.6875L917.812 60.4688C917.562 55.2188 916.875 50.2188 915.75 45.4688L918.469 44.4375C920.094 47.1875 921 50.25 921.188 53.625L922.594 54C924.656 51 927.281 48.8438 930.469 47.5312H934.594C938.656 49.5312 941.844 52.5938 944.156 56.7188C943.219 58.0938 941.969 58.7812 940.406 58.7812C938.344 56.0312 935.812 53.75 932.812 51.9375L930.094 51.5625C926.219 53.875 923.5 57.0625 921.938 61.125C921.688 64.125 921.438 67.0625 921.188 69.9375C921 72.75 920.688 75.5312 920.25 78.2812L920.531 79.2188L917.812 90.1875L915.375 91.2188ZM964.688 17.3438L963 16.6875L962.719 15.6562C964.281 14.7812 965.406 13.5313 966.094 11.9062C964.281 12.1562 962.812 11.5937 961.688 10.2188L960.281 5.15625L962.719 1.40625C963.594 0.46875 964.844 0.125 966.469 0.375L969.469 1.40625C971.094 3.21875 971.906 5.25 971.906 7.5C971.906 11.125 970.406 14.0938 967.406 16.4062L964.688 17.3438ZM980.062 17.3438L979.312 15.6562L981.75 13.6875V12.6562L978.656 10.2188L978 6.84375C978.25 4.78125 979.281 2.96875 981.094 1.40625L984.094 0.375L986.812 1.6875C988.875 3.5 989.781 5.78125 989.531 8.53125L986.156 14.625C984.594 16.4375 982.562 17.3438 980.062 17.3438Z" fill="#D8D5B6"/>
</svg>
